<?xml version="1.0" encoding="utf-8"?>
<!-- Generator: Adobe Illustrator 26.0.1, SVG Export Plug-In . SVG Version: 6.00 Build 0)  -->
<svg version="1.1" id="Camada_1" xmlns="http://www.w3.org/2000/svg" xmlns:xlink="http://www.w3.org/1999/xlink" x="0px" y="0px"
	 viewBox="0 0 345 345" style="enable-background:new 0 0 345 345;" xml:space="preserve">
<style type="text/css">
	.st0{stroke:#000000;stroke-width:23;stroke-miterlimit:10;}
</style>
<path class="st0" d="M330.6,316.8L214.5,200.6c-0.1-0.1-0.2-0.2-0.3-0.3c40.9-48.5,34.7-120.9-13.8-161.8S79.4,3.8,38.5,52.3
	S3.8,173.3,52.3,214.2c42.7,36,105.2,36,148,0c0.1,0.1,0.2,0.2,0.3,0.3l116.2,116.2c3.8,3.8,10,3.8,13.9,0S334.5,320.6,330.6,316.8z
	 M126.3,221.6c-52.6,0-95.2-42.6-95.2-95.2c0-25.2,10-49.5,27.9-67.3c36.8-37.6,97-38.3,134.7-1.6s38.3,97,1.6,134.7
	c-0.5,0.5-1,1.1-1.6,1.6C175.8,211.6,151.6,221.6,126.3,221.6z"/>
</svg>
